<?xml version="1.0" encoding="UTF-8"?>
<!-- Generator: visioncortex VTracer 0.6.5 -->
<svg version="1.1" xmlns="http://www.w3.org/2000/svg" width="1024" height="1024">
<path d="M0,0 L663,0 L679,4 L697,10 L713,17 L732,27 L743,34 L753,41 L763,49 L771,56 L797,82 L801,88 L811,102 L821,119 L828,133 L836,152 L839,162 L842,173 L843,179 L843,849 L842,856 L839,864 L834,879 L822,904 L816,915 L808,927 L802,935 L795,944 L789,951 L782,959 L770,971 L762,977 L757,981 L749,987 L734,997 L711,1009 L703,1013 L687,1019 L675,1023 L668,1024 L-5,1024 L-13,1023 L-21,1020 L-37,1014 L-53,1007 L-68,999 L-84,989 L-93,982 L-103,974 L-112,966 L-120,959 L-128,949 L-136,940 L-144,930 L-156,910 L-164,895 L-170,882 L-176,866 L-180,852 L-181,843 L-181,179 L-176,160 L-172,148 L-167,138 L-163,128 L-156,115 L-150,105 L-142,93 L-133,82 L-125,72 L-110,57 L-102,51 L-95,45 L-87,39 L-72,29 L-55,19 L-37,11 L-27,7 L-13,3 Z " fill="#090910" transform="translate(181,0)"/>
<path d="M0,0 L32,0 L57,4 L64,6 L64,7 L47,9 L26,14 L6,22 L-12,32 L-24,41 L-38,53 L-48,64 L-58,78 L-68,95 L-76,114 L-78,125 L-80,127 L-83,141 L-84,149 L-84,183 L-80,207 L-76,221 L-70,237 L-58,258 L-54,264 L-54,266 L-81,277 L-104,289 L-123,301 L-136,311 L-149,322 L-157,329 L-172,343 L-176,346 L-184,332 L-192,314 L-199,293 L-201,288 L-206,262 L-207,252 L-207,205 L-204,186 L-199,163 L-192,142 L-181,118 L-168,97 L-158,84 L-146,70 L-131,55 L-114,42 L-99,32 L-80,21 L-52,10 L-38,6 L-18,2 Z " fill="#CAD2FD" transform="translate(499,148)"/>
<path d="M0,0 L17,0 L34,3 L50,9 L64,17 L76,28 L85,38 L93,51 L99,67 L102,82 L102,102 L99,117 L93,132 L85,146 L73,159 L62,168 L48,176 L38,180 L23,183 L-5,183 L-18,180 L-34,173 L-46,165 L-58,154 L-66,144 L-74,130 L-79,115 L-81,106 L-81,77 L-77,61 L-69,45 L-62,34 L-50,22 L-36,12 L-18,4 Z " fill="#5953D9" transform="translate(502,420)"/>
<path d="M0,0 L52,0 L57,24 L63,44 L71,63 L76,73 L75,78 L68,88 L58,105 L49,124 L40,148 L34,167 L32,174 L31,174 L31,81 L35,77 L36,75 L36,68 L32,63 L30,62 L22,62 L17,66 L16,68 L16,75 L22,82 L22,177 L20,175 L13,150 L3,124 L-9,99 L-19,83 L-24,76 L-22,70 L-12,47 L-5,24 L-2,10 Z " fill="#C8CFFA" transform="translate(486,697)"/>
<path d="M0,0 L3,1 L-6,9 L-14,20 L-22,34 L-28,49 L-32,68 L-32,89 L-29,107 L-22,126 L-14,140 L-5,151 L-2,154 L-2,156 L2,158 L3,160 L-2,159 L-20,151 L-35,143 L-54,131 L-68,120 L-79,111 L-95,96 L-106,85 L-109,81 L-107,77 L-100,69 L-85,54 L-77,47 L-61,34 L-40,20 L-22,10 L-5,2 Z " fill="#8F94EC" transform="translate(438,432)"/>
<path d="M0,0 L5,1 L23,9 L40,18 L61,32 L75,43 L85,52 L97,63 L111,77 L112,81 L103,91 L85,109 L74,118 L57,131 L38,143 L17,154 L3,160 L1,159 L12,147 L22,132 L29,116 L33,103 L35,91 L35,68 L32,52 L26,36 L18,21 L7,7 L0,1 Z " fill="#8F93EC" transform="translate(583,432)"/>
<path d="M0,0 L14,0 L27,4 L27,6 L22,10 L21,12 L21,24 L25,30 L28,32 L40,32 L45,29 L47,26 L49,26 L53,36 L53,54 L49,66 L42,77 L34,84 L22,90 L14,92 L0,92 L-13,88 L-22,82 L-27,78 L-34,68 L-39,55 L-39,38 L-36,28 L-30,18 L-25,12 L-15,5 L-5,1 Z " fill="#010104" transform="translate(505,466)"/>
<path d="M0,0 L16,1 L43,1 L64,0 L64,11 L59,65 L5,65 L1,19 L0,12 Z " fill="#9CA2F1" transform="translate(480,619)"/>
<path d="M0,0 L1,0 L3,18 L3,44 L0,68 L-4,87 L-12,113 L-21,133 L-28,146 L-32,146 L-41,136 L-54,124 L-67,113 L-71,109 L-60,101 L-50,92 L-45,87 L-37,79 L-25,63 L-16,47 L-8,29 L-3,13 Z " fill="#C9D0FA" transform="translate(730,347)"/>
<path d="M0,0 L1,0 L1,38 L0,45 L-3,53 L-8,68 L-20,93 L-26,104 L-34,116 L-40,124 L-47,133 L-53,140 L-60,148 L-72,160 L-80,166 L-85,170 L-93,176 L-108,186 L-131,198 L-139,202 L-155,208 L-167,212 L-174,213 L-210,213 L-210,212 L-194,210 L-174,206 L-163,203 L-143,196 L-118,184 L-103,175 L-89,165 L-80,158 L-75,153 L-63,142 L-56,133 L-51,128 L-41,115 L-30,98 L-21,81 L-11,56 L-4,30 L-1,12 Z " fill="#F6F6F6" transform="translate(1023,811)"/>
<path d="M0,0 L1,0 L4,23 L10,47 L16,65 L26,87 L36,104 L48,121 L59,134 L79,154 L90,163 L107,175 L128,187 L154,198 L174,204 L194,208 L210,210 L210,211 L176,211 L168,210 L160,207 L144,201 L128,194 L113,186 L97,176 L88,169 L78,161 L69,153 L61,146 L53,136 L45,127 L37,117 L25,97 L17,82 L11,69 L5,53 L1,39 L0,30 Z " fill="#F7F7F7" transform="translate(0,813)"/>
<path d="M0,0 L35,0 L51,4 L69,10 L85,17 L104,27 L115,34 L125,41 L135,49 L143,56 L169,82 L173,88 L183,102 L193,119 L200,133 L208,152 L211,162 L214,173 L215,179 L215,209 L214,209 L211,187 L207,170 L198,143 L186,118 L176,102 L166,88 L154,74 L138,58 L124,47 L111,38 L96,29 L80,21 L60,13 L49,9 L32,5 L12,2 L0,1 Z " fill="#F6F6F6" transform="translate(809,0)"/>
<path d="M0,0 L27,0 L27,1 L8,4 L-11,8 L-35,16 L-59,27 L-77,38 L-91,48 L-102,57 L-114,68 L-121,75 L-130,86 L-140,99 L-151,117 L-160,134 L-169,157 L-175,178 L-179,201 L-180,210 L-181,210 L-181,179 L-176,160 L-172,148 L-167,138 L-163,128 L-156,115 L-150,105 L-142,93 L-133,82 L-125,72 L-110,57 L-102,51 L-95,45 L-87,39 L-72,29 L-55,19 L-37,11 L-27,7 L-13,3 Z " fill="#F8F8F9" transform="translate(181,0)"/>
<path d="M0,0 L2,1 L1,6 L-4,19 L-12,33 L-24,46 L-35,55 L-49,63 L-59,67 L-74,70 L-102,70 L-115,67 L-131,60 L-143,52 L-155,41 L-163,31 L-171,17 L-173,11 L-170,12 L-162,27 L-159,32 L-157,33 L-154,38 L-152,42 L-148,44 L-137,53 L-125,60 L-110,65 L-104,67 L-84,68 L-70,67 L-61,64 L-52,61 L-43,56 L-40,56 L-40,54 L-34,52 L-34,50 L-30,47 L-28,47 L-28,45 L-20,38 L-16,32 L-14,32 L-14,30 L-12,30 L-11,25 L-7,19 L-2,6 Z " fill="#36359B" transform="translate(599,533)"/>
<path d="M0,0 L2,1 L1,6 L1,23 L6,36 L13,46 L24,54 L34,58 L39,59 L53,59 L66,55 L77,48 L83,41 L85,39 L84,44 L80,49 L69,57 L59,61 L45,62 L35,61 L25,58 L14,50 L7,43 L3,36 L3,33 L1,33 L-1,26 L-1,3 Z " fill="#4646AA" transform="translate(466,498)"/>
<path d="M0,0 L17,0 L28,2 L28,4 L11,3 L-7,4 L-8,5 L-15,6 L-22,9 L-29,12 L-38,17 L-46,23 L-60,37 L-61,35 L-58,30 L-50,22 L-36,12 L-18,4 Z " fill="#776AD0" transform="translate(502,420)"/>
<path d="M0,0 L3,1 L-6,9 L-14,20 L-22,34 L-28,49 L-29,49 L-29,43 L-26,35 L-21,25 L-19,25 L-17,19 L-15,19 L-14,15 L-8,7 L-16,10 L-31,18 L-45,27 L-51,30 L-54,29 L-35,17 L-10,4 Z " fill="#7475C6" transform="translate(438,432)"/>
<path d="M0,0 L2,3 L5,8 L11,11 L7,14 L2,19 L1,23 L-1,23 L-4,16 L-11,12 L-8,10 L-3,7 Z " fill="#8585B8" transform="translate(784,534)"/>
<path d="M0,0 L2,0 L5,7 L11,10 L8,13 L3,18 L2,22 L0,22 L-3,15 L-10,11 L-7,9 L-3,7 Z " fill="#8687B9" transform="translate(255,568)"/>
<path d="M0,0 L2,2 L4,8 L9,10 L12,12 L4,16 L1,22 L-1,20 L-4,15 L-11,12 L-9,10 L-3,7 Z " fill="#8B89B9" transform="translate(658,688)"/>
<path d="M0,0 L2,0 L5,7 L12,10 L8,13 L3,18 L2,21 L0,21 L-3,15 L-10,11 L-7,9 L-3,7 Z " fill="#8A8BBF" transform="translate(332,771)"/>
<path d="M0,0 L3,3 L4,7 L10,9 L12,11 L5,14 L1,21 L-1,18 L-5,13 L-10,11 L-6,8 L-2,5 Z " fill="#8585BC" transform="translate(266,131)"/>
<path d="M0,0 L5,1 L23,9 L40,18 L41,20 L32,17 L32,15 L27,15 L23,12 L16,8 L9,5 L16,14 L25,28 L26,31 L24,32 L18,21 L7,7 L0,1 Z " fill="#6F70C0" transform="translate(583,432)"/>
<path d="M0,0 L9,0 L9,11 L8,23 L7,23 L6,10 L8,2 L2,3 L-13,4 L-38,4 L-38,2 L-12,1 Z " fill="#878BD3" transform="translate(535,619)"/>
<path d="M0,0 L16,1 L24,5 L25,8 L20,12 L18,11 L21,8 L23,8 L23,6 L14,4 L10,3 L-4,3 L-17,7 L-27,13 L-28,10 L-18,4 L-10,1 Z " fill="#6C62C9" transform="translate(509,464)"/>
<path d="M0,0 L2,1 L1,6 L-4,19 L-12,33 L-22,44 L-25,43 L-20,38 L-16,32 L-14,32 L-14,30 L-12,30 L-11,25 L-7,19 L-2,6 Z " fill="#4745AF" transform="translate(599,533)"/>
<path d="M0,0 L1,0 L3,10 L8,16 L21,17 L23,13 L25,11 L30,11 L32,14 L32,18 L34,18 L34,27 L33,27 L29,14 L29,12 L22,18 L20,19 L8,19 L2,14 L0,10 Z " fill="#625DC1" transform="translate(525,480)"/>
<path d="M0,0 L8,1 L21,6 L35,14 L47,25 L48,27 L44,26 L44,24 L42,24 L42,22 L37,20 L34,17 L20,8 L9,4 L0,1 Z " fill="#7A6ED0" transform="translate(531,423)"/>
<path d="M0,0 L3,1 L11,16 L14,21 L16,22 L19,27 L21,31 L25,33 L29,37 L23,35 L16,28 L6,14 L0,1 Z " fill="#4342A9" transform="translate(426,544)"/>
<path d="M0,0 L2,1 L2,26 L-2,42 L-4,47 L-5,43 L-2,30 L-1,24 Z " fill="#9498DC" transform="translate(619,499)"/>
<path d="M0,0 L31,0 L30,2 L7,2 L-14,7 L-26,12 L-26,10 L-17,6 L-8,2 L-1,1 Z " fill="#0A072E" transform="translate(495,419)"/>
<path d="M0,0 L2,0 L4,5 L9,9 L3,13 L0,16 L-3,11 L-7,8 L-2,5 Z " fill="#8182B5" transform="translate(861,192)"/>
<path d="M0,0 L2,1 L1,6 L1,23 L6,36 L14,47 L13,49 L6,41 L3,36 L3,33 L1,33 L-1,26 L-1,3 Z " fill="#5250B1" transform="translate(466,498)"/>
<path d="M0,0 L1,0 L4,23 L5,31 L0,30 Z " fill="#ECECED" transform="translate(0,813)"/>
<path d="M0,0 L1,0 L2,23 L3,29 L2,32 L4,32 L6,42 L7,47 L5,47 L1,34 L0,29 Z " fill="#5454B8" transform="translate(421,497)"/>
<path d="M0,0 L1,0 L1,36 L-1,32 L-2,15 L-1,3 Z " fill="#53567A" transform="translate(291,359)"/>
<path d="M0,0 L2,0 L4,5 L7,6 L7,8 L3,9 L2,14 L0,14 L-2,9 L-5,8 L-5,6 L-1,5 Z " fill="#7A7EA9" transform="translate(202,691)"/>
<path d="M0,0 L14,8 L30,14 L37,16 L37,17 L31,17 L19,13 L3,5 L0,2 Z " fill="#04042C" transform="translate(458,586)"/>
</svg>
